solid button2
  facet normal -0.980873 -0.194648 -0
    outer loop
      vertex -95.4319 144.782 152
      vertex -95.4829 145.039 146
      vertex -95.4319 144.782 146
    endloop
  endfacet
  facet normal 0.897008 -0.442015 0
    outer loop
      vertex -84.6522 144.535 152
      vertex -84.768 144.3 152
      vertex -84.6522 144.535 146
    endloop
  endfacet
  facet normal 0.660421 0.750895 -0
    outer loop
      vertex -85.0858 172.914 146
      vertex -85.2825 173.087 146
      vertex -85.0858 172.914 152
    endloop
  endfacet
  facet normal 0.0649716 -0.997887 0
    outer loop
      vertex -86.2389 143.317 146
      vertex -86.5 143.3 152
      vertex -86.5 143.3 146
    endloop
  endfacet
  facet normal -0.0649716 -0.997887 0
    outer loop
      vertex -93.5 143.3 146
      vertex -93.7611 143.317 152
      vertex -93.7611 143.317 146
    endloop
  endfacet
  facet normal 1 0 0
    outer loop
      vertex -84.5 171.5 146
      vertex -84.5 145.3 152
      vertex -84.5 145.3 146
    endloop
  endfacet
  facet normal -0.897008 -0.442015 0
    outer loop
      vertex -95.232 144.3 146
      vertex -95.232 144.3 152
      vertex -95.3478 144.535 146
    endloop
  endfacet
  facet normal 0 0 1
    outer loop
      vertex -86.2389 143.317 152
      vertex -95.232 172.5 152
      vertex -86.5 143.3 152
    endloop
  endfacet
  facet normal 0.660421 -0.750895 0
    outer loop
      vertex -85.0858 143.886 152
      vertex -85.2825 143.713 152
      vertex -85.0858 143.886 146
    endloop
  endfacet
  facet normal -0.997861 -0.0653771 0
    outer loop
      vertex -95.5 145.3 152
      vertex -95.4829 145.039 146
      vertex -95.4829 145.039 152
    endloop
  endfacet
  facet normal -0.997861 -0.0653771 0
    outer loop
      vertex -95.5 145.3 146
      vertex -95.4829 145.039 146
      vertex -95.5 145.3 152
    endloop
  endfacet
  facet normal 0 0 1
    outer loop
      vertex -84.5171 145.039 152
      vertex -95.232 172.5 152
      vertex -84.5681 144.782 152
    endloop
  endfacet
  facet normal -0.443235 0.896405 0
    outer loop
      vertex -94.5 173.232 152
      vertex -94.2654 173.348 152
      vertex -94.5 173.232 146
    endloop
  endfacet
  facet normal -0.832109 0.554612 0
    outer loop
      vertex -95.232 172.5 146
      vertex -95.232 172.5 152
      vertex -95.0867 172.718 146
    endloop
  endfacet
  facet normal 0 -1 0
    outer loop
      vertex -86.5 143.3 146
      vertex -86.5 143.3 152
      vertex -93.5 143.3 146
    endloop
  endfacet
  facet normal 0 -0 1
    outer loop
      vertex -95.232 144.3 152
      vertex -95.232 172.5 152
      vertex -95.3478 144.535 152
    endloop
  endfacet
  facet normal -0 0 1
    outer loop
      vertex -95.0867 172.718 152
      vertex -95.232 172.5 152
      vertex -94.9142 172.914 152
    endloop
  endfacet
  facet normal 0.997861 0.0653771 -0
    outer loop
      vertex -84.5 171.5 146
      vertex -84.5171 171.761 152
      vertex -84.5 171.5 152
    endloop
  endfacet
  facet normal 0.832109 -0.554612 0
    outer loop
      vertex -84.768 144.3 146
      vertex -84.768 144.3 152
      vertex -84.9133 144.082 146
    endloop
  endfacet
  facet normal 0 0 1
    outer loop
      vertex -86.5 173.5 152
      vertex -95.232 172.5 152
      vertex -86.2389 173.483 152
    endloop
  endfacet
  facet normal -0.946632 -0.322315 -0
    outer loop
      vertex -95.4319 144.782 152
      vertex -95.4319 144.782 146
      vertex -95.3478 144.535 152
    endloop
  endfacet
  facet normal -0.195013 0.980801 0
    outer loop
      vertex -93.7611 173.483 152
      vertex -94.0176 173.432 146
      vertex -94.0176 173.432 152
    endloop
  endfacet
  facet normal -0 0 1
    outer loop
      vertex -94.9142 172.914 152
      vertex -95.232 172.5 152
      vertex -94.7175 173.087 152
    endloop
  endfacet
  facet normal -0 0 1
    outer loop
      vertex -93.5 173.5 152
      vertex -95.232 172.5 152
      vertex -86.5 173.5 152
    endloop
  endfacet
  facet normal 0.443235 0.896405 -0
    outer loop
      vertex -85.5 173.232 146
      vertex -85.7346 173.348 146
      vertex -85.5 173.232 152
    endloop
  endfacet
  facet normal 0 0 1
    outer loop
      vertex -85.7346 173.348 152
      vertex -95.232 172.5 152
      vertex -85.5 173.232 152
    endloop
  endfacet
  facet normal 0.660421 -0.750895 0
    outer loop
      vertex -85.0858 143.886 146
      vertex -85.2825 143.713 152
      vertex -85.2825 143.713 146
    endloop
  endfacet
  facet normal 0 0 1
    outer loop
      vertex -84.9133 172.718 152
      vertex -95.232 172.5 152
      vertex -84.768 172.5 152
    endloop
  endfacet
  facet normal 0.997861 -0.0653771 0
    outer loop
      vertex -84.5 145.3 152
      vertex -84.5171 145.039 146
      vertex -84.5 145.3 146
    endloop
  endfacet
  facet normal 0 0 1
    outer loop
      vertex -84.5 171.5 152
      vertex -95.232 172.5 152
      vertex -84.5 145.3 152
    endloop
  endfacet
  facet normal 0 0 1
    outer loop
      vertex -84.6522 172.265 152
      vertex -95.232 172.5 152
      vertex -84.5681 172.018 152
    endloop
  endfacet
  facet normal 0.980873 -0.194648 0
    outer loop
      vertex -84.5171 145.039 146
      vertex -84.5681 144.782 152
      vertex -84.5681 144.782 146
    endloop
  endfacet
  facet normal -0.443235 -0.896405 0
    outer loop
      vertex -94.2654 143.452 146
      vertex -94.5 143.568 152
      vertex -94.5 143.568 146
    endloop
  endfacet
  facet normal 0.195013 -0.980801 0
    outer loop
      vertex -86.2389 143.317 152
      vertex -85.9824 143.368 146
      vertex -85.9824 143.368 152
    endloop
  endfacet
  facet normal 0 0 -1
    outer loop
      vertex -94.0176 143.368 146
      vertex -85.9824 173.432 146
      vertex -93.7611 143.317 146
    endloop
  endfacet
  facet normal 0.750676 -0.660671 0
    outer loop
      vertex -84.9133 144.082 146
      vertex -84.9133 144.082 152
      vertex -85.0858 143.886 146
    endloop
  endfacet
  facet normal -1 0 0
    outer loop
      vertex -95.5 145.3 146
      vertex -95.5 171.5 152
      vertex -95.5 171.5 146
    endloop
  endfacet
  facet normal -1 0 0
    outer loop
      vertex -95.5 145.3 152
      vertex -95.5 171.5 152
      vertex -95.5 145.3 146
    endloop
  endfacet
  facet normal 0.946632 0.322315 -0
    outer loop
      vertex -84.5681 172.018 146
      vertex -84.6522 172.265 146
      vertex -84.5681 172.018 152
    endloop
  endfacet
  facet normal 0.5547 0.83205 0
    outer loop
      vertex -85.2825 173.087 152
      vertex -85.2825 173.087 146
      vertex -85.5 173.232 152
    endloop
  endfacet
  facet normal 1 0 0
    outer loop
      vertex -84.5 171.5 152
      vertex -84.5 145.3 152
      vertex -84.5 171.5 146
    endloop
  endfacet
  facet normal -0.750676 0.660671 0
    outer loop
      vertex -95.0867 172.718 146
      vertex -95.0867 172.718 152
      vertex -94.9142 172.914 146
    endloop
  endfacet
  facet normal -0.832109 -0.554612 -0
    outer loop
      vertex -95.0867 144.082 152
      vertex -95.232 144.3 152
      vertex -95.0867 144.082 146
    endloop
  endfacet
  facet normal -0.980873 -0.194648 -0
    outer loop
      vertex -95.4829 145.039 152
      vertex -95.4829 145.039 146
      vertex -95.4319 144.782 152
    endloop
  endfacet
  facet normal 0.443235 -0.896405 0
    outer loop
      vertex -85.5 143.568 146
      vertex -85.5 143.568 152
      vertex -85.7346 143.452 146
    endloop
  endfacet
  facet normal 0 -0 -1
    outer loop
      vertex -94.7175 173.087 146
      vertex -85.9824 173.432 146
      vertex -94.9142 172.914 146
    endloop
  endfacet
  facet normal 0 -0 -1
    outer loop
      vertex -94.0176 173.432 146
      vertex -85.9824 173.432 146
      vertex -94.2654 173.348 146
    endloop
  endfacet
  facet normal -0.5547 0.83205 0
    outer loop
      vertex -94.5 173.232 146
      vertex -94.7175 173.087 146
      vertex -94.5 173.232 152
    endloop
  endfacet
  facet normal 0.195013 -0.980801 0
    outer loop
      vertex -86.2389 143.317 146
      vertex -85.9824 143.368 146
      vertex -86.2389 143.317 152
    endloop
  endfacet
  facet normal 0 -0 1
    outer loop
      vertex -95.4829 145.039 152
      vertex -95.232 172.5 152
      vertex -95.5 145.3 152
    endloop
  endfacet
  facet normal 0.980873 0.194648 0
    outer loop
      vertex -84.5681 172.018 152
      vertex -84.5171 171.761 152
      vertex -84.5681 172.018 146
    endloop
  endfacet
  facet normal -0.321039 -0.947066 0
    outer loop
      vertex -94.2654 143.452 146
      vertex -94.0176 143.368 152
      vertex -94.2654 143.452 152
    endloop
  endfacet
  facet normal 0 0 -1
    outer loop
      vertex -84.5681 172.018 146
      vertex -85.9824 173.432 146
      vertex -84.6522 172.265 146
    endloop
  endfacet
  facet normal 0 0 -1
    outer loop
      vertex -84.9133 144.082 146
      vertex -85.9824 173.432 146
      vertex -84.768 144.3 146
    endloop
  endfacet
  facet normal 0.0649716 0.997887 0
    outer loop
      vertex -86.5 173.5 152
      vertex -86.2389 173.483 152
      vertex -86.5 173.5 146
    endloop
  endfacet
  facet normal 0.832109 -0.554612 0
    outer loop
      vertex -84.9133 144.082 146
      vertex -84.768 144.3 152
      vertex -84.9133 144.082 152
    endloop
  endfacet
  facet normal -0.750676 -0.660671 -0
    outer loop
      vertex -94.9142 143.886 152
      vertex -95.0867 144.082 146
      vertex -94.9142 143.886 146
    endloop
  endfacet
  facet normal -0.660421 -0.750895 0
    outer loop
      vertex -94.9142 143.886 152
      vertex -94.7175 143.713 146
      vertex -94.7175 143.713 152
    endloop
  endfacet
  facet normal -0.0649716 -0.997887 -0
    outer loop
      vertex -93.5 143.3 152
      vertex -93.7611 143.317 152
      vertex -93.5 143.3 146
    endloop
  endfacet
  facet normal -0.997861 0.0653771 0
    outer loop
      vertex -95.5 171.5 146
      vertex -95.4829 171.761 152
      vertex -95.4829 171.761 146
    endloop
  endfacet
  facet normal 0.997861 0.0653771 -0
    outer loop
      vertex -84.5171 171.761 146
      vertex -84.5171 171.761 152
      vertex -84.5 171.5 146
    endloop
  endfacet
  facet normal -0 -0 -1
    outer loop
      vertex -86.5 173.5 146
      vertex -85.9824 173.432 146
      vertex -93.5 173.5 146
    endloop
  endfacet
  facet normal 0.195013 0.980801 0
    outer loop
      vertex -86.2389 173.483 152
      vertex -85.9824 173.432 146
      vertex -86.2389 173.483 146
    endloop
  endfacet
  facet normal 0 0 1
    outer loop
      vertex -84.768 172.5 152
      vertex -95.232 172.5 152
      vertex -84.6522 172.265 152
    endloop
  endfacet
  facet normal -0.946632 0.322315 0
    outer loop
      vertex -95.3478 172.265 146
      vertex -95.4319 172.018 146
      vertex -95.3478 172.265 152
    endloop
  endfacet
  facet normal -0.750676 -0.660671 -0
    outer loop
      vertex -95.0867 144.082 152
      vertex -95.0867 144.082 146
      vertex -94.9142 143.886 152
    endloop
  endfacet
  facet normal 0 -1 0
    outer loop
      vertex -93.5 143.3 146
      vertex -86.5 143.3 152
      vertex -93.5 143.3 152
    endloop
  endfacet
  facet normal -0.5547 0.83205 0
    outer loop
      vertex -94.5 173.232 152
      vertex -94.7175 173.087 146
      vertex -94.7175 173.087 152
    endloop
  endfacet
  facet normal 0.0649716 -0.997887 0
    outer loop
      vertex -86.2389 143.317 152
      vertex -86.5 143.3 152
      vertex -86.2389 143.317 146
    endloop
  endfacet
  facet normal 0.980873 -0.194648 0
    outer loop
      vertex -84.5171 145.039 152
      vertex -84.5681 144.782 152
      vertex -84.5171 145.039 146
    endloop
  endfacet
  facet normal -0.897008 -0.442015 0
    outer loop
      vertex -95.3478 144.535 146
      vertex -95.232 144.3 152
      vertex -95.3478 144.535 152
    endloop
  endfacet
  facet normal -0.946632 -0.322315 -0
    outer loop
      vertex -95.3478 144.535 152
      vertex -95.4319 144.782 146
      vertex -95.3478 144.535 146
    endloop
  endfacet
  facet normal -0.195013 -0.980801 0
    outer loop
      vertex -94.0176 143.368 146
      vertex -93.7611 143.317 152
      vertex -94.0176 143.368 152
    endloop
  endfacet
  facet normal -0.195013 0.980801 0
    outer loop
      vertex -93.7611 173.483 146
      vertex -94.0176 173.432 146
      vertex -93.7611 173.483 152
    endloop
  endfacet
  facet normal 0 -0 -1
    outer loop
      vertex -95.4319 172.018 146
      vertex -85.9824 173.432 146
      vertex -95.4829 171.761 146
    endloop
  endfacet
  facet normal 0 0 -1
    outer loop
      vertex -85.2825 173.087 146
      vertex -85.9824 173.432 146
      vertex -85.5 173.232 146
    endloop
  endfacet
  facet normal 0 1 -0
    outer loop
      vertex -86.5 173.5 146
      vertex -93.5 173.5 146
      vertex -86.5 173.5 152
    endloop
  endfacet
  facet normal 0 0 1
    outer loop
      vertex -84.6522 144.535 152
      vertex -95.232 172.5 152
      vertex -84.768 144.3 152
    endloop
  endfacet
  facet normal 0 0 1
    outer loop
      vertex -85.5 173.232 152
      vertex -95.232 172.5 152
      vertex -85.2825 173.087 152
    endloop
  endfacet
  facet normal 0.750676 -0.660671 0
    outer loop
      vertex -85.0858 143.886 146
      vertex -84.9133 144.082 152
      vertex -85.0858 143.886 152
    endloop
  endfacet
  facet normal 0.443235 0.896405 0
    outer loop
      vertex -85.5 173.232 152
      vertex -85.7346 173.348 146
      vertex -85.7346 173.348 152
    endloop
  endfacet
  facet normal -0.660421 -0.750895 0
    outer loop
      vertex -94.9142 143.886 146
      vertex -94.7175 143.713 146
      vertex -94.9142 143.886 152
    endloop
  endfacet
  facet normal 0 0 -1
    outer loop
      vertex -84.768 144.3 146
      vertex -85.9824 173.432 146
      vertex -84.6522 144.535 146
    endloop
  endfacet
  facet normal 0 0 1
    outer loop
      vertex -93.5 143.3 152
      vertex -95.232 172.5 152
      vertex -93.7611 143.317 152
    endloop
  endfacet
  facet normal 0.5547 -0.83205 0
    outer loop
      vertex -85.2825 143.713 146
      vertex -85.2825 143.713 152
      vertex -85.5 143.568 146
    endloop
  endfacet
  facet normal 0 0 1
    outer loop
      vertex -84.768 144.3 152
      vertex -95.232 172.5 152
      vertex -84.9133 144.082 152
    endloop
  endfacet
  facet normal 0 -0 -1
    outer loop
      vertex -93.5 173.5 146
      vertex -85.9824 173.432 146
      vertex -93.7611 173.483 146
    endloop
  endfacet
  facet normal 0 -0 -1
    outer loop
      vertex -95.4829 171.761 146
      vertex -85.9824 173.432 146
      vertex -95.5 171.5 146
    endloop
  endfacet
  facet normal 0.321039 -0.947066 0
    outer loop
      vertex -85.9824 143.368 152
      vertex -85.9824 143.368 146
      vertex -85.7346 143.452 152
    endloop
  endfacet
  facet normal 0.946632 0.322315 0
    outer loop
      vertex -84.5681 172.018 152
      vertex -84.6522 172.265 146
      vertex -84.6522 172.265 152
    endloop
  endfacet
  facet normal 0 0 -1
    outer loop
      vertex -94.7175 143.713 146
      vertex -85.9824 173.432 146
      vertex -94.5 143.568 146
    endloop
  endfacet
  facet normal 0.0649716 0.997887 0
    outer loop
      vertex -86.5 173.5 146
      vertex -86.2389 173.483 152
      vertex -86.2389 173.483 146
    endloop
  endfacet
  facet normal -0.0649716 0.997887 0
    outer loop
      vertex -93.5 173.5 152
      vertex -93.5 173.5 146
      vertex -93.7611 173.483 152
    endloop
  endfacet
  facet normal -0.980873 0.194648 0
    outer loop
      vertex -95.4319 172.018 152
      vertex -95.4319 172.018 146
      vertex -95.4829 171.761 152
    endloop
  endfacet
  facet normal 0.980873 0.194648 0
    outer loop
      vertex -84.5681 172.018 146
      vertex -84.5171 171.761 152
      vertex -84.5171 171.761 146
    endloop
  endfacet
  facet normal -0.321039 -0.947066 0
    outer loop
      vertex -94.0176 143.368 146
      vertex -94.0176 143.368 152
      vertex -94.2654 143.452 146
    endloop
  endfacet
  facet normal 0.897008 -0.442015 0
    outer loop
      vertex -84.6522 144.535 146
      vertex -84.768 144.3 152
      vertex -84.768 144.3 146
    endloop
  endfacet
  facet normal 0 0 -1
    outer loop
      vertex -85.0858 143.886 146
      vertex -85.9824 173.432 146
      vertex -84.9133 144.082 146
    endloop
  endfacet
  facet normal -0.195013 -0.980801 0
    outer loop
      vertex -93.7611 143.317 146
      vertex -93.7611 143.317 152
      vertex -94.0176 143.368 146
    endloop
  endfacet
  facet normal -0.832109 -0.554612 0
    outer loop
      vertex -95.0867 144.082 146
      vertex -95.232 144.3 152
      vertex -95.232 144.3 146
    endloop
  endfacet
  facet normal 0.997861 -0.0653771 0
    outer loop
      vertex -84.5171 145.039 152
      vertex -84.5171 145.039 146
      vertex -84.5 145.3 152
    endloop
  endfacet
  facet normal 0.750676 0.660671 0
    outer loop
      vertex -85.0858 172.914 152
      vertex -84.9133 172.718 152
      vertex -85.0858 172.914 146
    endloop
  endfacet
  facet normal 0 -0 -1
    outer loop
      vertex -95.3478 172.265 146
      vertex -85.9824 173.432 146
      vertex -95.4319 172.018 146
    endloop
  endfacet
  facet normal 0 0 -1
    outer loop
      vertex -93.5 143.3 146
      vertex -85.9824 173.432 146
      vertex -86.5 143.3 146
    endloop
  endfacet
  facet normal 0 0 -1
    outer loop
      vertex -95.3478 144.535 146
      vertex -85.9824 173.432 146
      vertex -95.232 144.3 146
    endloop
  endfacet
  facet normal -0.660421 0.750895 0
    outer loop
      vertex -94.9142 172.914 146
      vertex -94.9142 172.914 152
      vertex -94.7175 173.087 146
    endloop
  endfacet
  facet normal 0.897008 0.442015 -0
    outer loop
      vertex -84.6522 172.265 146
      vertex -84.768 172.5 152
      vertex -84.6522 172.265 152
    endloop
  endfacet
  facet normal -0.897008 0.442015 0
    outer loop
      vertex -95.3478 172.265 152
      vertex -95.232 172.5 152
      vertex -95.3478 172.265 146
    endloop
  endfacet
  facet normal 0 0 1
    outer loop
      vertex -94.0176 143.368 152
      vertex -95.232 172.5 152
      vertex -94.2654 143.452 152
    endloop
  endfacet
  facet normal 0 -0 -1
    outer loop
      vertex -95.0867 172.718 146
      vertex -85.9824 173.432 146
      vertex -95.232 172.5 146
    endloop
  endfacet
  facet normal 0 0 -1
    outer loop
      vertex -86.5 143.3 146
      vertex -85.9824 173.432 146
      vertex -86.2389 143.317 146
    endloop
  endfacet
  facet normal 0 0 1
    outer loop
      vertex -94.5 143.568 152
      vertex -95.232 172.5 152
      vertex -94.7175 143.713 152
    endloop
  endfacet
  facet normal 0.5547 0.83205 0
    outer loop
      vertex -85.5 173.232 152
      vertex -85.2825 173.087 146
      vertex -85.5 173.232 146
    endloop
  endfacet
  facet normal 0.946632 -0.322315 0
    outer loop
      vertex -84.5681 144.782 152
      vertex -84.6522 144.535 146
      vertex -84.5681 144.782 146
    endloop
  endfacet
  facet normal 0 1 0
    outer loop
      vertex -86.5 173.5 152
      vertex -93.5 173.5 146
      vertex -93.5 173.5 152
    endloop
  endfacet
  facet normal -0.0649716 0.997887 0
    outer loop
      vertex -93.7611 173.483 152
      vertex -93.5 173.5 146
      vertex -93.7611 173.483 146
    endloop
  endfacet
  facet normal -0 0 1
    outer loop
      vertex -94.5 173.232 152
      vertex -95.232 172.5 152
      vertex -94.2654 173.348 152
    endloop
  endfacet
  facet normal -0.946632 0.322315 0
    outer loop
      vertex -95.3478 172.265 152
      vertex -95.4319 172.018 146
      vertex -95.4319 172.018 152
    endloop
  endfacet
  facet normal 0 0 -1
    outer loop
      vertex -95.5 171.5 146
      vertex -85.9824 173.432 146
      vertex -95.5 145.3 146
    endloop
  endfacet
  facet normal 0.750676 0.660671 0
    outer loop
      vertex -85.0858 172.914 146
      vertex -84.9133 172.718 152
      vertex -84.9133 172.718 146
    endloop
  endfacet
  facet normal -0.997861 0.0653771 0
    outer loop
      vertex -95.5 171.5 152
      vertex -95.4829 171.761 152
      vertex -95.5 171.5 146
    endloop
  endfacet
  facet normal 0 0 1
    outer loop
      vertex -95.4829 171.761 152
      vertex -95.232 172.5 152
      vertex -95.4319 172.018 152
    endloop
  endfacet
  facet normal -0 0 1
    outer loop
      vertex -94.7175 173.087 152
      vertex -95.232 172.5 152
      vertex -94.5 173.232 152
    endloop
  endfacet
  facet normal -0 0 1
    outer loop
      vertex -94.0176 173.432 152
      vertex -95.232 172.5 152
      vertex -93.7611 173.483 152
    endloop
  endfacet
  facet normal 0 0 -1
    outer loop
      vertex -84.768 172.5 146
      vertex -85.9824 173.432 146
      vertex -84.9133 172.718 146
    endloop
  endfacet
  facet normal 0 0 -1
    outer loop
      vertex -95.232 144.3 146
      vertex -85.9824 173.432 146
      vertex -95.0867 144.082 146
    endloop
  endfacet
  facet normal 0.443235 -0.896405 0
    outer loop
      vertex -85.7346 143.452 146
      vertex -85.5 143.568 152
      vertex -85.7346 143.452 152
    endloop
  endfacet
  facet normal 0.832109 0.554612 0
    outer loop
      vertex -84.9133 172.718 152
      vertex -84.768 172.5 152
      vertex -84.9133 172.718 146
    endloop
  endfacet
  facet normal -0.321039 0.947066 0
    outer loop
      vertex -94.0176 173.432 146
      vertex -94.2654 173.348 152
      vertex -94.0176 173.432 152
    endloop
  endfacet
  facet normal 0 0 1
    outer loop
      vertex -84.5171 171.761 152
      vertex -95.232 172.5 152
      vertex -84.5 171.5 152
    endloop
  endfacet
  facet normal 0 0 -1
    outer loop
      vertex -94.2654 143.452 146
      vertex -85.9824 173.432 146
      vertex -94.0176 143.368 146
    endloop
  endfacet
  facet normal 0 0 -1
    outer loop
      vertex -86.2389 143.317 146
      vertex -85.9824 173.432 146
      vertex -85.9824 143.368 146
    endloop
  endfacet
  facet normal 0 0 -1
    outer loop
      vertex -95.4319 144.782 146
      vertex -85.9824 173.432 146
      vertex -95.3478 144.535 146
    endloop
  endfacet
  facet normal -0 -0 -1
    outer loop
      vertex -86.2389 173.483 146
      vertex -85.9824 173.432 146
      vertex -86.5 173.5 146
    endloop
  endfacet
  facet normal -0.5547 -0.83205 0
    outer loop
      vertex -94.5 143.568 146
      vertex -94.5 143.568 152
      vertex -94.7175 143.713 146
    endloop
  endfacet
  facet normal -0 0 1
    outer loop
      vertex -94.2654 173.348 152
      vertex -95.232 172.5 152
      vertex -94.0176 173.432 152
    endloop
  endfacet
  facet normal 0.321039 -0.947066 0
    outer loop
      vertex -85.7346 143.452 152
      vertex -85.9824 143.368 146
      vertex -85.7346 143.452 146
    endloop
  endfacet
  facet normal 0 0 -1
    outer loop
      vertex -94.9142 143.886 146
      vertex -85.9824 173.432 146
      vertex -94.7175 143.713 146
    endloop
  endfacet
  facet normal 0 0 1
    outer loop
      vertex -85.2825 173.087 152
      vertex -95.232 172.5 152
      vertex -85.0858 172.914 152
    endloop
  endfacet
  facet normal 0 -0 -1
    outer loop
      vertex -95.232 172.5 146
      vertex -85.9824 173.432 146
      vertex -95.3478 172.265 146
    endloop
  endfacet
  facet normal 0.195013 0.980801 0
    outer loop
      vertex -85.9824 173.432 152
      vertex -85.9824 173.432 146
      vertex -86.2389 173.483 152
    endloop
  endfacet
  facet normal 0.321039 0.947066 0
    outer loop
      vertex -85.7346 173.348 152
      vertex -85.9824 173.432 146
      vertex -85.9824 173.432 152
    endloop
  endfacet
  facet normal 0.660421 0.750895 0
    outer loop
      vertex -85.0858 172.914 152
      vertex -85.2825 173.087 146
      vertex -85.2825 173.087 152
    endloop
  endfacet
  facet normal 0.946632 -0.322315 0
    outer loop
      vertex -84.6522 144.535 152
      vertex -84.6522 144.535 146
      vertex -84.5681 144.782 152
    endloop
  endfacet
  facet normal 0 0 -1
    outer loop
      vertex -94.5 143.568 146
      vertex -85.9824 173.432 146
      vertex -94.2654 143.452 146
    endloop
  endfacet
  facet normal 0 0 1
    outer loop
      vertex -85.9824 173.432 152
      vertex -95.232 172.5 152
      vertex -85.7346 173.348 152
    endloop
  endfacet
  facet normal -0.750676 0.660671 0
    outer loop
      vertex -94.9142 172.914 146
      vertex -95.0867 172.718 152
      vertex -94.9142 172.914 152
    endloop
  endfacet
  facet normal 0.832109 0.554612 0
    outer loop
      vertex -84.9133 172.718 146
      vertex -84.768 172.5 152
      vertex -84.768 172.5 146
    endloop
  endfacet
  facet normal 0 0 1
    outer loop
      vertex -85.5 143.568 152
      vertex -95.232 172.5 152
      vertex -85.7346 143.452 152
    endloop
  endfacet
  facet normal 0 0 -1
    outer loop
      vertex -95.5 145.3 146
      vertex -85.9824 173.432 146
      vertex -95.4829 145.039 146
    endloop
  endfacet
  facet normal -0.660421 0.750895 0
    outer loop
      vertex -94.7175 173.087 146
      vertex -94.9142 172.914 152
      vertex -94.7175 173.087 152
    endloop
  endfacet
  facet normal -0 0 1
    outer loop
      vertex -93.7611 173.483 152
      vertex -95.232 172.5 152
      vertex -93.5 173.5 152
    endloop
  endfacet
  facet normal 0.897008 0.442015 -0
    outer loop
      vertex -84.768 172.5 146
      vertex -84.768 172.5 152
      vertex -84.6522 172.265 146
    endloop
  endfacet
  facet normal -0.5547 -0.83205 0
    outer loop
      vertex -94.7175 143.713 146
      vertex -94.5 143.568 152
      vertex -94.7175 143.713 152
    endloop
  endfacet
  facet normal 0 0 -1
    outer loop
      vertex -84.6522 144.535 146
      vertex -85.9824 173.432 146
      vertex -84.5681 144.782 146
    endloop
  endfacet
  facet normal -0.321039 0.947066 0
    outer loop
      vertex -94.2654 173.348 146
      vertex -94.2654 173.348 152
      vertex -94.0176 173.432 146
    endloop
  endfacet
  facet normal 0 0 -1
    outer loop
      vertex -93.7611 143.317 146
      vertex -85.9824 173.432 146
      vertex -93.5 143.3 146
    endloop
  endfacet
  facet normal 0 0 1
    outer loop
      vertex -85.0858 172.914 152
      vertex -95.232 172.5 152
      vertex -84.9133 172.718 152
    endloop
  endfacet
  facet normal -0.443235 -0.896405 -0
    outer loop
      vertex -94.2654 143.452 152
      vertex -94.5 143.568 152
      vertex -94.2654 143.452 146
    endloop
  endfacet
  facet normal 0 0 1
    outer loop
      vertex -85.9824 143.368 152
      vertex -95.232 172.5 152
      vertex -86.2389 143.317 152
    endloop
  endfacet
  facet normal 0 0 -1
    outer loop
      vertex -85.7346 143.452 146
      vertex -85.9824 173.432 146
      vertex -85.5 143.568 146
    endloop
  endfacet
  facet normal 0 0 -1
    outer loop
      vertex -85.2825 143.713 146
      vertex -85.9824 173.432 146
      vertex -85.0858 143.886 146
    endloop
  endfacet
  facet normal 0 0 1
    outer loop
      vertex -86.2389 173.483 152
      vertex -95.232 172.5 152
      vertex -85.9824 173.432 152
    endloop
  endfacet
  facet normal 0 0 1
    outer loop
      vertex -84.5681 144.782 152
      vertex -95.232 172.5 152
      vertex -84.6522 144.535 152
    endloop
  endfacet
  facet normal 0 0 -1
    outer loop
      vertex -95.0867 144.082 146
      vertex -85.9824 173.432 146
      vertex -94.9142 143.886 146
    endloop
  endfacet
  facet normal 0 0 -1
    outer loop
      vertex -95.4829 145.039 146
      vertex -85.9824 173.432 146
      vertex -95.4319 144.782 146
    endloop
  endfacet
  facet normal 0 0 1
    outer loop
      vertex -95.0867 144.082 152
      vertex -95.232 172.5 152
      vertex -95.232 144.3 152
    endloop
  endfacet
  facet normal 0.5547 -0.83205 0
    outer loop
      vertex -85.5 143.568 146
      vertex -85.2825 143.713 152
      vertex -85.5 143.568 152
    endloop
  endfacet
  facet normal 0 0 1
    outer loop
      vertex -86.5 143.3 152
      vertex -95.232 172.5 152
      vertex -93.5 143.3 152
    endloop
  endfacet
  facet normal 0 0 -1
    outer loop
      vertex -84.5171 171.761 146
      vertex -85.9824 173.432 146
      vertex -84.5681 172.018 146
    endloop
  endfacet
  facet normal 0 0 1
    outer loop
      vertex -85.2825 143.713 152
      vertex -95.232 172.5 152
      vertex -85.5 143.568 152
    endloop
  endfacet
  facet normal -0.897008 0.442015 0
    outer loop
      vertex -95.3478 172.265 146
      vertex -95.232 172.5 152
      vertex -95.232 172.5 146
    endloop
  endfacet
  facet normal 0 0 -1
    outer loop
      vertex -85.9824 143.368 146
      vertex -85.9824 173.432 146
      vertex -85.7346 143.452 146
    endloop
  endfacet
  facet normal 0 0 -1
    outer loop
      vertex -85.5 143.568 146
      vertex -85.9824 173.432 146
      vertex -85.2825 143.713 146
    endloop
  endfacet
  facet normal 0 -0 1
    outer loop
      vertex -95.3478 144.535 152
      vertex -95.232 172.5 152
      vertex -95.4319 144.782 152
    endloop
  endfacet
  facet normal 0 0 1
    outer loop
      vertex -84.5681 172.018 152
      vertex -95.232 172.5 152
      vertex -84.5171 171.761 152
    endloop
  endfacet
  facet normal 0 0 -1
    outer loop
      vertex -84.6522 172.265 146
      vertex -85.9824 173.432 146
      vertex -84.768 172.5 146
    endloop
  endfacet
  facet normal -0.980873 0.194648 0
    outer loop
      vertex -95.4829 171.761 152
      vertex -95.4319 172.018 146
      vertex -95.4829 171.761 146
    endloop
  endfacet
  facet normal -0.443235 0.896405 0
    outer loop
      vertex -94.5 173.232 146
      vertex -94.2654 173.348 152
      vertex -94.2654 173.348 146
    endloop
  endfacet
  facet normal 0 0 1
    outer loop
      vertex -94.9142 143.886 152
      vertex -95.232 172.5 152
      vertex -95.0867 144.082 152
    endloop
  endfacet
  facet normal 0 -0 -1
    outer loop
      vertex -94.2654 173.348 146
      vertex -85.9824 173.432 146
      vertex -94.5 173.232 146
    endloop
  endfacet
  facet normal 0 -0 -1
    outer loop
      vertex -93.7611 173.483 146
      vertex -85.9824 173.432 146
      vertex -94.0176 173.432 146
    endloop
  endfacet
  facet normal 0 0 1
    outer loop
      vertex -85.0858 143.886 152
      vertex -95.232 172.5 152
      vertex -85.2825 143.713 152
    endloop
  endfacet
  facet normal 0 0 1
    outer loop
      vertex -84.5 145.3 152
      vertex -95.232 172.5 152
      vertex -84.5171 145.039 152
    endloop
  endfacet
  facet normal 0 -0 -1
    outer loop
      vertex -94.5 173.232 146
      vertex -85.9824 173.432 146
      vertex -94.7175 173.087 146
    endloop
  endfacet
  facet normal 0 -0 -1
    outer loop
      vertex -94.9142 172.914 146
      vertex -85.9824 173.432 146
      vertex -95.0867 172.718 146
    endloop
  endfacet
  facet normal 0 0 -1
    outer loop
      vertex -84.9133 172.718 146
      vertex -85.9824 173.432 146
      vertex -85.0858 172.914 146
    endloop
  endfacet
  facet normal 0 0 -1
    outer loop
      vertex -85.0858 172.914 146
      vertex -85.9824 173.432 146
      vertex -85.2825 173.087 146
    endloop
  endfacet
  facet normal 0 0 -1
    outer loop
      vertex -84.5 171.5 146
      vertex -85.9824 173.432 146
      vertex -84.5171 171.761 146
    endloop
  endfacet
  facet normal 0 0 -1
    outer loop
      vertex -84.5 145.3 146
      vertex -85.9824 173.432 146
      vertex -84.5 171.5 146
    endloop
  endfacet
  facet normal 0 0 -1
    outer loop
      vertex -85.5 173.232 146
      vertex -85.9824 173.432 146
      vertex -85.7346 173.348 146
    endloop
  endfacet
  facet normal 0.321039 0.947066 -0
    outer loop
      vertex -85.7346 173.348 146
      vertex -85.9824 173.432 146
      vertex -85.7346 173.348 152
    endloop
  endfacet
  facet normal 0 -0 1
    outer loop
      vertex -95.4319 144.782 152
      vertex -95.232 172.5 152
      vertex -95.4829 145.039 152
    endloop
  endfacet
  facet normal 0 0 1
    outer loop
      vertex -94.7175 143.713 152
      vertex -95.232 172.5 152
      vertex -94.9142 143.886 152
    endloop
  endfacet
  facet normal -0.832109 0.554612 0
    outer loop
      vertex -95.0867 172.718 146
      vertex -95.232 172.5 152
      vertex -95.0867 172.718 152
    endloop
  endfacet
  facet normal 0 0 1
    outer loop
      vertex -95.4319 172.018 152
      vertex -95.232 172.5 152
      vertex -95.3478 172.265 152
    endloop
  endfacet
  facet normal 0 0 1
    outer loop
      vertex -84.9133 144.082 152
      vertex -95.232 172.5 152
      vertex -85.0858 143.886 152
    endloop
  endfacet
  facet normal 0 0 1
    outer loop
      vertex -85.7346 143.452 152
      vertex -95.232 172.5 152
      vertex -85.9824 143.368 152
    endloop
  endfacet
  facet normal 0 0 1
    outer loop
      vertex -94.2654 143.452 152
      vertex -95.232 172.5 152
      vertex -94.5 143.568 152
    endloop
  endfacet
  facet normal 0 0 1
    outer loop
      vertex -93.7611 143.317 152
      vertex -95.232 172.5 152
      vertex -94.0176 143.368 152
    endloop
  endfacet
  facet normal 0 0 -1
    outer loop
      vertex -84.5171 145.039 146
      vertex -85.9824 173.432 146
      vertex -84.5 145.3 146
    endloop
  endfacet
  facet normal 0 0 -1
    outer loop
      vertex -84.5681 144.782 146
      vertex -85.9824 173.432 146
      vertex -84.5171 145.039 146
    endloop
  endfacet
  facet normal 0 0 1
    outer loop
      vertex -95.5 171.5 152
      vertex -95.232 172.5 152
      vertex -95.4829 171.761 152
    endloop
  endfacet
  facet normal 0 0 1
    outer loop
      vertex -95.5 145.3 152
      vertex -95.232 172.5 152
      vertex -95.5 171.5 152
    endloop
  endfacet
endsolid OpenSCAD_Model
