solid button2
  facet normal -0.980873 -0.194648 -0
    outer loop
      vertex -95.9319 144.782 152
      vertex -95.9829 145.039 146
      vertex -95.9319 144.782 146
    endloop
  endfacet
  facet normal 0.897008 -0.442015 0
    outer loop
      vertex -85.1522 144.535 152
      vertex -85.268 144.3 152
      vertex -85.1522 144.535 146
    endloop
  endfacet
  facet normal 0.660421 0.750895 -0
    outer loop
      vertex -85.5858 172.914 146
      vertex -85.7825 173.087 146
      vertex -85.5858 172.914 152
    endloop
  endfacet
  facet normal 0.0649716 -0.997887 0
    outer loop
      vertex -86.7389 143.317 146
      vertex -87 143.3 152
      vertex -87 143.3 146
    endloop
  endfacet
  facet normal -0.0649716 -0.997887 0
    outer loop
      vertex -94 143.3 146
      vertex -94.2611 143.317 152
      vertex -94.2611 143.317 146
    endloop
  endfacet
  facet normal 1 0 0
    outer loop
      vertex -85 171.5 146
      vertex -85 145.3 152
      vertex -85 145.3 146
    endloop
  endfacet
  facet normal -0.897008 -0.442015 0
    outer loop
      vertex -95.732 144.3 146
      vertex -95.732 144.3 152
      vertex -95.8478 144.535 146
    endloop
  endfacet
  facet normal 0 0 1
    outer loop
      vertex -86.7389 143.317 152
      vertex -95.732 172.5 152
      vertex -87 143.3 152
    endloop
  endfacet
  facet normal 0.660421 -0.750895 0
    outer loop
      vertex -85.5858 143.886 152
      vertex -85.7825 143.713 152
      vertex -85.5858 143.886 146
    endloop
  endfacet
  facet normal -0.997861 -0.0653771 0
    outer loop
      vertex -96 145.3 152
      vertex -95.9829 145.039 146
      vertex -95.9829 145.039 152
    endloop
  endfacet
  facet normal -0.997861 -0.0653771 0
    outer loop
      vertex -96 145.3 146
      vertex -95.9829 145.039 146
      vertex -96 145.3 152
    endloop
  endfacet
  facet normal 0 0 1
    outer loop
      vertex -85.0171 145.039 152
      vertex -95.732 172.5 152
      vertex -85.0681 144.782 152
    endloop
  endfacet
  facet normal -0.443235 0.896405 0
    outer loop
      vertex -95 173.232 152
      vertex -94.7654 173.348 152
      vertex -95 173.232 146
    endloop
  endfacet
  facet normal -0.832109 0.554612 0
    outer loop
      vertex -95.732 172.5 146
      vertex -95.732 172.5 152
      vertex -95.5867 172.718 146
    endloop
  endfacet
  facet normal 0 -1 0
    outer loop
      vertex -87 143.3 146
      vertex -87 143.3 152
      vertex -94 143.3 146
    endloop
  endfacet
  facet normal 0 -0 1
    outer loop
      vertex -95.732 144.3 152
      vertex -95.732 172.5 152
      vertex -95.8478 144.535 152
    endloop
  endfacet
  facet normal -0 0 1
    outer loop
      vertex -95.5867 172.718 152
      vertex -95.732 172.5 152
      vertex -95.4142 172.914 152
    endloop
  endfacet
  facet normal 0.997861 0.0653771 -0
    outer loop
      vertex -85 171.5 146
      vertex -85.0171 171.761 152
      vertex -85 171.5 152
    endloop
  endfacet
  facet normal 0.832109 -0.554612 0
    outer loop
      vertex -85.268 144.3 146
      vertex -85.268 144.3 152
      vertex -85.4133 144.082 146
    endloop
  endfacet
  facet normal 0 0 1
    outer loop
      vertex -87 173.5 152
      vertex -95.732 172.5 152
      vertex -86.7389 173.483 152
    endloop
  endfacet
  facet normal -0.946632 -0.322315 -0
    outer loop
      vertex -95.9319 144.782 152
      vertex -95.9319 144.782 146
      vertex -95.8478 144.535 152
    endloop
  endfacet
  facet normal -0.195013 0.980801 0
    outer loop
      vertex -94.2611 173.483 152
      vertex -94.5176 173.432 146
      vertex -94.5176 173.432 152
    endloop
  endfacet
  facet normal -0 0 1
    outer loop
      vertex -95.4142 172.914 152
      vertex -95.732 172.5 152
      vertex -95.2175 173.087 152
    endloop
  endfacet
  facet normal -0 0 1
    outer loop
      vertex -94 173.5 152
      vertex -95.732 172.5 152
      vertex -87 173.5 152
    endloop
  endfacet
  facet normal 0.443235 0.896405 -0
    outer loop
      vertex -86 173.232 146
      vertex -86.2346 173.348 146
      vertex -86 173.232 152
    endloop
  endfacet
  facet normal 0 0 1
    outer loop
      vertex -86.2346 173.348 152
      vertex -95.732 172.5 152
      vertex -86 173.232 152
    endloop
  endfacet
  facet normal 0.660421 -0.750895 0
    outer loop
      vertex -85.5858 143.886 146
      vertex -85.7825 143.713 152
      vertex -85.7825 143.713 146
    endloop
  endfacet
  facet normal 0 0 1
    outer loop
      vertex -85.4133 172.718 152
      vertex -95.732 172.5 152
      vertex -85.268 172.5 152
    endloop
  endfacet
  facet normal 0.997861 -0.0653771 0
    outer loop
      vertex -85 145.3 152
      vertex -85.0171 145.039 146
      vertex -85 145.3 146
    endloop
  endfacet
  facet normal 0 0 1
    outer loop
      vertex -85 171.5 152
      vertex -95.732 172.5 152
      vertex -85 145.3 152
    endloop
  endfacet
  facet normal 0 0 1
    outer loop
      vertex -85.1522 172.265 152
      vertex -95.732 172.5 152
      vertex -85.0681 172.018 152
    endloop
  endfacet
  facet normal 0.980873 -0.194648 0
    outer loop
      vertex -85.0171 145.039 146
      vertex -85.0681 144.782 152
      vertex -85.0681 144.782 146
    endloop
  endfacet
  facet normal -0.443235 -0.896405 0
    outer loop
      vertex -94.7654 143.452 146
      vertex -95 143.568 152
      vertex -95 143.568 146
    endloop
  endfacet
  facet normal 0.195013 -0.980801 0
    outer loop
      vertex -86.7389 143.317 152
      vertex -86.4824 143.368 146
      vertex -86.4824 143.368 152
    endloop
  endfacet
  facet normal 0 0 -1
    outer loop
      vertex -94.5176 143.368 146
      vertex -86.4824 173.432 146
      vertex -94.2611 143.317 146
    endloop
  endfacet
  facet normal 0.750676 -0.660671 0
    outer loop
      vertex -85.4133 144.082 146
      vertex -85.4133 144.082 152
      vertex -85.5858 143.886 146
    endloop
  endfacet
  facet normal -1 0 0
    outer loop
      vertex -96 145.3 146
      vertex -96 171.5 152
      vertex -96 171.5 146
    endloop
  endfacet
  facet normal -1 0 0
    outer loop
      vertex -96 145.3 152
      vertex -96 171.5 152
      vertex -96 145.3 146
    endloop
  endfacet
  facet normal 0.946632 0.322315 -0
    outer loop
      vertex -85.0681 172.018 146
      vertex -85.1522 172.265 146
      vertex -85.0681 172.018 152
    endloop
  endfacet
  facet normal 0.5547 0.83205 0
    outer loop
      vertex -85.7825 173.087 152
      vertex -85.7825 173.087 146
      vertex -86 173.232 152
    endloop
  endfacet
  facet normal 1 0 0
    outer loop
      vertex -85 171.5 152
      vertex -85 145.3 152
      vertex -85 171.5 146
    endloop
  endfacet
  facet normal -0.750676 0.660671 0
    outer loop
      vertex -95.5867 172.718 146
      vertex -95.5867 172.718 152
      vertex -95.4142 172.914 146
    endloop
  endfacet
  facet normal -0.832109 -0.554612 -0
    outer loop
      vertex -95.5867 144.082 152
      vertex -95.732 144.3 152
      vertex -95.5867 144.082 146
    endloop
  endfacet
  facet normal -0.980873 -0.194648 -0
    outer loop
      vertex -95.9829 145.039 152
      vertex -95.9829 145.039 146
      vertex -95.9319 144.782 152
    endloop
  endfacet
  facet normal 0.443235 -0.896405 0
    outer loop
      vertex -86 143.568 146
      vertex -86 143.568 152
      vertex -86.2346 143.452 146
    endloop
  endfacet
  facet normal 0 -0 -1
    outer loop
      vertex -95.2175 173.087 146
      vertex -86.4824 173.432 146
      vertex -95.4142 172.914 146
    endloop
  endfacet
  facet normal 0 -0 -1
    outer loop
      vertex -94.5176 173.432 146
      vertex -86.4824 173.432 146
      vertex -94.7654 173.348 146
    endloop
  endfacet
  facet normal -0.5547 0.83205 0
    outer loop
      vertex -95 173.232 146
      vertex -95.2175 173.087 146
      vertex -95 173.232 152
    endloop
  endfacet
  facet normal 0.195013 -0.980801 0
    outer loop
      vertex -86.7389 143.317 146
      vertex -86.4824 143.368 146
      vertex -86.7389 143.317 152
    endloop
  endfacet
  facet normal 0 -0 1
    outer loop
      vertex -95.9829 145.039 152
      vertex -95.732 172.5 152
      vertex -96 145.3 152
    endloop
  endfacet
  facet normal 0.980873 0.194648 0
    outer loop
      vertex -85.0681 172.018 152
      vertex -85.0171 171.761 152
      vertex -85.0681 172.018 146
    endloop
  endfacet
  facet normal -0.321039 -0.947066 0
    outer loop
      vertex -94.7654 143.452 146
      vertex -94.5176 143.368 152
      vertex -94.7654 143.452 152
    endloop
  endfacet
  facet normal 0 0 -1
    outer loop
      vertex -85.0681 172.018 146
      vertex -86.4824 173.432 146
      vertex -85.1522 172.265 146
    endloop
  endfacet
  facet normal 0 0 -1
    outer loop
      vertex -85.4133 144.082 146
      vertex -86.4824 173.432 146
      vertex -85.268 144.3 146
    endloop
  endfacet
  facet normal 0.0649716 0.997887 0
    outer loop
      vertex -87 173.5 152
      vertex -86.7389 173.483 152
      vertex -87 173.5 146
    endloop
  endfacet
  facet normal 0.832109 -0.554612 0
    outer loop
      vertex -85.4133 144.082 146
      vertex -85.268 144.3 152
      vertex -85.4133 144.082 152
    endloop
  endfacet
  facet normal -0.750676 -0.660671 -0
    outer loop
      vertex -95.4142 143.886 152
      vertex -95.5867 144.082 146
      vertex -95.4142 143.886 146
    endloop
  endfacet
  facet normal -0.660421 -0.750895 0
    outer loop
      vertex -95.4142 143.886 152
      vertex -95.2175 143.713 146
      vertex -95.2175 143.713 152
    endloop
  endfacet
  facet normal -0.0649716 -0.997887 -0
    outer loop
      vertex -94 143.3 152
      vertex -94.2611 143.317 152
      vertex -94 143.3 146
    endloop
  endfacet
  facet normal -0.997861 0.0653771 0
    outer loop
      vertex -96 171.5 146
      vertex -95.9829 171.761 152
      vertex -95.9829 171.761 146
    endloop
  endfacet
  facet normal 0.997861 0.0653771 -0
    outer loop
      vertex -85.0171 171.761 146
      vertex -85.0171 171.761 152
      vertex -85 171.5 146
    endloop
  endfacet
  facet normal -0 -0 -1
    outer loop
      vertex -87 173.5 146
      vertex -86.4824 173.432 146
      vertex -94 173.5 146
    endloop
  endfacet
  facet normal 0.195013 0.980801 0
    outer loop
      vertex -86.7389 173.483 152
      vertex -86.4824 173.432 146
      vertex -86.7389 173.483 146
    endloop
  endfacet
  facet normal 0 0 1
    outer loop
      vertex -85.268 172.5 152
      vertex -95.732 172.5 152
      vertex -85.1522 172.265 152
    endloop
  endfacet
  facet normal -0.946632 0.322315 0
    outer loop
      vertex -95.8478 172.265 146
      vertex -95.9319 172.018 146
      vertex -95.8478 172.265 152
    endloop
  endfacet
  facet normal -0.750676 -0.660671 -0
    outer loop
      vertex -95.5867 144.082 152
      vertex -95.5867 144.082 146
      vertex -95.4142 143.886 152
    endloop
  endfacet
  facet normal 0 -1 0
    outer loop
      vertex -94 143.3 146
      vertex -87 143.3 152
      vertex -94 143.3 152
    endloop
  endfacet
  facet normal -0.5547 0.83205 0
    outer loop
      vertex -95 173.232 152
      vertex -95.2175 173.087 146
      vertex -95.2175 173.087 152
    endloop
  endfacet
  facet normal 0.0649716 -0.997887 0
    outer loop
      vertex -86.7389 143.317 152
      vertex -87 143.3 152
      vertex -86.7389 143.317 146
    endloop
  endfacet
  facet normal 0.980873 -0.194648 0
    outer loop
      vertex -85.0171 145.039 152
      vertex -85.0681 144.782 152
      vertex -85.0171 145.039 146
    endloop
  endfacet
  facet normal -0.897008 -0.442015 0
    outer loop
      vertex -95.8478 144.535 146
      vertex -95.732 144.3 152
      vertex -95.8478 144.535 152
    endloop
  endfacet
  facet normal -0.946632 -0.322315 -0
    outer loop
      vertex -95.8478 144.535 152
      vertex -95.9319 144.782 146
      vertex -95.8478 144.535 146
    endloop
  endfacet
  facet normal -0.195013 -0.980801 0
    outer loop
      vertex -94.5176 143.368 146
      vertex -94.2611 143.317 152
      vertex -94.5176 143.368 152
    endloop
  endfacet
  facet normal -0.195013 0.980801 0
    outer loop
      vertex -94.2611 173.483 146
      vertex -94.5176 173.432 146
      vertex -94.2611 173.483 152
    endloop
  endfacet
  facet normal 0 -0 -1
    outer loop
      vertex -95.9319 172.018 146
      vertex -86.4824 173.432 146
      vertex -95.9829 171.761 146
    endloop
  endfacet
  facet normal 0 0 -1
    outer loop
      vertex -85.7825 173.087 146
      vertex -86.4824 173.432 146
      vertex -86 173.232 146
    endloop
  endfacet
  facet normal 0 1 -0
    outer loop
      vertex -87 173.5 146
      vertex -94 173.5 146
      vertex -87 173.5 152
    endloop
  endfacet
  facet normal 0 0 1
    outer loop
      vertex -85.1522 144.535 152
      vertex -95.732 172.5 152
      vertex -85.268 144.3 152
    endloop
  endfacet
  facet normal 0 0 1
    outer loop
      vertex -86 173.232 152
      vertex -95.732 172.5 152
      vertex -85.7825 173.087 152
    endloop
  endfacet
  facet normal 0.750676 -0.660671 0
    outer loop
      vertex -85.5858 143.886 146
      vertex -85.4133 144.082 152
      vertex -85.5858 143.886 152
    endloop
  endfacet
  facet normal 0.443235 0.896405 0
    outer loop
      vertex -86 173.232 152
      vertex -86.2346 173.348 146
      vertex -86.2346 173.348 152
    endloop
  endfacet
  facet normal -0.660421 -0.750895 0
    outer loop
      vertex -95.4142 143.886 146
      vertex -95.2175 143.713 146
      vertex -95.4142 143.886 152
    endloop
  endfacet
  facet normal 0 0 -1
    outer loop
      vertex -85.268 144.3 146
      vertex -86.4824 173.432 146
      vertex -85.1522 144.535 146
    endloop
  endfacet
  facet normal 0 0 1
    outer loop
      vertex -94 143.3 152
      vertex -95.732 172.5 152
      vertex -94.2611 143.317 152
    endloop
  endfacet
  facet normal 0.5547 -0.83205 0
    outer loop
      vertex -85.7825 143.713 146
      vertex -85.7825 143.713 152
      vertex -86 143.568 146
    endloop
  endfacet
  facet normal 0 0 1
    outer loop
      vertex -85.268 144.3 152
      vertex -95.732 172.5 152
      vertex -85.4133 144.082 152
    endloop
  endfacet
  facet normal 0 -0 -1
    outer loop
      vertex -94 173.5 146
      vertex -86.4824 173.432 146
      vertex -94.2611 173.483 146
    endloop
  endfacet
  facet normal 0 -0 -1
    outer loop
      vertex -95.9829 171.761 146
      vertex -86.4824 173.432 146
      vertex -96 171.5 146
    endloop
  endfacet
  facet normal 0.321039 -0.947066 0
    outer loop
      vertex -86.4824 143.368 152
      vertex -86.4824 143.368 146
      vertex -86.2346 143.452 152
    endloop
  endfacet
  facet normal 0.946632 0.322315 0
    outer loop
      vertex -85.0681 172.018 152
      vertex -85.1522 172.265 146
      vertex -85.1522 172.265 152
    endloop
  endfacet
  facet normal 0 0 -1
    outer loop
      vertex -95.2175 143.713 146
      vertex -86.4824 173.432 146
      vertex -95 143.568 146
    endloop
  endfacet
  facet normal 0.0649716 0.997887 0
    outer loop
      vertex -87 173.5 146
      vertex -86.7389 173.483 152
      vertex -86.7389 173.483 146
    endloop
  endfacet
  facet normal -0.0649716 0.997887 0
    outer loop
      vertex -94 173.5 152
      vertex -94 173.5 146
      vertex -94.2611 173.483 152
    endloop
  endfacet
  facet normal -0.980873 0.194648 0
    outer loop
      vertex -95.9319 172.018 152
      vertex -95.9319 172.018 146
      vertex -95.9829 171.761 152
    endloop
  endfacet
  facet normal 0.980873 0.194648 0
    outer loop
      vertex -85.0681 172.018 146
      vertex -85.0171 171.761 152
      vertex -85.0171 171.761 146
    endloop
  endfacet
  facet normal -0.321039 -0.947066 0
    outer loop
      vertex -94.5176 143.368 146
      vertex -94.5176 143.368 152
      vertex -94.7654 143.452 146
    endloop
  endfacet
  facet normal 0.897008 -0.442015 0
    outer loop
      vertex -85.1522 144.535 146
      vertex -85.268 144.3 152
      vertex -85.268 144.3 146
    endloop
  endfacet
  facet normal 0 0 -1
    outer loop
      vertex -85.5858 143.886 146
      vertex -86.4824 173.432 146
      vertex -85.4133 144.082 146
    endloop
  endfacet
  facet normal -0.195013 -0.980801 0
    outer loop
      vertex -94.2611 143.317 146
      vertex -94.2611 143.317 152
      vertex -94.5176 143.368 146
    endloop
  endfacet
  facet normal -0.832109 -0.554612 0
    outer loop
      vertex -95.5867 144.082 146
      vertex -95.732 144.3 152
      vertex -95.732 144.3 146
    endloop
  endfacet
  facet normal 0.997861 -0.0653771 0
    outer loop
      vertex -85.0171 145.039 152
      vertex -85.0171 145.039 146
      vertex -85 145.3 152
    endloop
  endfacet
  facet normal 0.750676 0.660671 0
    outer loop
      vertex -85.5858 172.914 152
      vertex -85.4133 172.718 152
      vertex -85.5858 172.914 146
    endloop
  endfacet
  facet normal 0 -0 -1
    outer loop
      vertex -95.8478 172.265 146
      vertex -86.4824 173.432 146
      vertex -95.9319 172.018 146
    endloop
  endfacet
  facet normal 0 0 -1
    outer loop
      vertex -94 143.3 146
      vertex -86.4824 173.432 146
      vertex -87 143.3 146
    endloop
  endfacet
  facet normal 0 0 -1
    outer loop
      vertex -95.8478 144.535 146
      vertex -86.4824 173.432 146
      vertex -95.732 144.3 146
    endloop
  endfacet
  facet normal -0.660421 0.750895 0
    outer loop
      vertex -95.4142 172.914 146
      vertex -95.4142 172.914 152
      vertex -95.2175 173.087 146
    endloop
  endfacet
  facet normal 0.897008 0.442015 -0
    outer loop
      vertex -85.1522 172.265 146
      vertex -85.268 172.5 152
      vertex -85.1522 172.265 152
    endloop
  endfacet
  facet normal -0.897008 0.442015 0
    outer loop
      vertex -95.8478 172.265 152
      vertex -95.732 172.5 152
      vertex -95.8478 172.265 146
    endloop
  endfacet
  facet normal 0 0 1
    outer loop
      vertex -94.5176 143.368 152
      vertex -95.732 172.5 152
      vertex -94.7654 143.452 152
    endloop
  endfacet
  facet normal 0 -0 -1
    outer loop
      vertex -95.5867 172.718 146
      vertex -86.4824 173.432 146
      vertex -95.732 172.5 146
    endloop
  endfacet
  facet normal 0 0 -1
    outer loop
      vertex -87 143.3 146
      vertex -86.4824 173.432 146
      vertex -86.7389 143.317 146
    endloop
  endfacet
  facet normal 0 0 1
    outer loop
      vertex -95 143.568 152
      vertex -95.732 172.5 152
      vertex -95.2175 143.713 152
    endloop
  endfacet
  facet normal 0.5547 0.83205 0
    outer loop
      vertex -86 173.232 152
      vertex -85.7825 173.087 146
      vertex -86 173.232 146
    endloop
  endfacet
  facet normal 0.946632 -0.322315 0
    outer loop
      vertex -85.0681 144.782 152
      vertex -85.1522 144.535 146
      vertex -85.0681 144.782 146
    endloop
  endfacet
  facet normal 0 1 0
    outer loop
      vertex -87 173.5 152
      vertex -94 173.5 146
      vertex -94 173.5 152
    endloop
  endfacet
  facet normal -0.0649716 0.997887 0
    outer loop
      vertex -94.2611 173.483 152
      vertex -94 173.5 146
      vertex -94.2611 173.483 146
    endloop
  endfacet
  facet normal -0 0 1
    outer loop
      vertex -95 173.232 152
      vertex -95.732 172.5 152
      vertex -94.7654 173.348 152
    endloop
  endfacet
  facet normal -0.946632 0.322315 0
    outer loop
      vertex -95.8478 172.265 152
      vertex -95.9319 172.018 146
      vertex -95.9319 172.018 152
    endloop
  endfacet
  facet normal 0 0 -1
    outer loop
      vertex -96 171.5 146
      vertex -86.4824 173.432 146
      vertex -96 145.3 146
    endloop
  endfacet
  facet normal 0.750676 0.660671 0
    outer loop
      vertex -85.5858 172.914 146
      vertex -85.4133 172.718 152
      vertex -85.4133 172.718 146
    endloop
  endfacet
  facet normal -0.997861 0.0653771 0
    outer loop
      vertex -96 171.5 152
      vertex -95.9829 171.761 152
      vertex -96 171.5 146
    endloop
  endfacet
  facet normal 0 0 1
    outer loop
      vertex -95.9829 171.761 152
      vertex -95.732 172.5 152
      vertex -95.9319 172.018 152
    endloop
  endfacet
  facet normal -0 0 1
    outer loop
      vertex -95.2175 173.087 152
      vertex -95.732 172.5 152
      vertex -95 173.232 152
    endloop
  endfacet
  facet normal -0 0 1
    outer loop
      vertex -94.5176 173.432 152
      vertex -95.732 172.5 152
      vertex -94.2611 173.483 152
    endloop
  endfacet
  facet normal 0 0 -1
    outer loop
      vertex -85.268 172.5 146
      vertex -86.4824 173.432 146
      vertex -85.4133 172.718 146
    endloop
  endfacet
  facet normal 0 0 -1
    outer loop
      vertex -95.732 144.3 146
      vertex -86.4824 173.432 146
      vertex -95.5867 144.082 146
    endloop
  endfacet
  facet normal 0.443235 -0.896405 0
    outer loop
      vertex -86.2346 143.452 146
      vertex -86 143.568 152
      vertex -86.2346 143.452 152
    endloop
  endfacet
  facet normal 0.832109 0.554612 0
    outer loop
      vertex -85.4133 172.718 152
      vertex -85.268 172.5 152
      vertex -85.4133 172.718 146
    endloop
  endfacet
  facet normal -0.321039 0.947066 0
    outer loop
      vertex -94.5176 173.432 146
      vertex -94.7654 173.348 152
      vertex -94.5176 173.432 152
    endloop
  endfacet
  facet normal 0 0 1
    outer loop
      vertex -85.0171 171.761 152
      vertex -95.732 172.5 152
      vertex -85 171.5 152
    endloop
  endfacet
  facet normal 0 0 -1
    outer loop
      vertex -94.7654 143.452 146
      vertex -86.4824 173.432 146
      vertex -94.5176 143.368 146
    endloop
  endfacet
  facet normal 0 0 -1
    outer loop
      vertex -86.7389 143.317 146
      vertex -86.4824 173.432 146
      vertex -86.4824 143.368 146
    endloop
  endfacet
  facet normal 0 0 -1
    outer loop
      vertex -95.9319 144.782 146
      vertex -86.4824 173.432 146
      vertex -95.8478 144.535 146
    endloop
  endfacet
  facet normal -0 -0 -1
    outer loop
      vertex -86.7389 173.483 146
      vertex -86.4824 173.432 146
      vertex -87 173.5 146
    endloop
  endfacet
  facet normal -0.5547 -0.83205 0
    outer loop
      vertex -95 143.568 146
      vertex -95 143.568 152
      vertex -95.2175 143.713 146
    endloop
  endfacet
  facet normal -0 0 1
    outer loop
      vertex -94.7654 173.348 152
      vertex -95.732 172.5 152
      vertex -94.5176 173.432 152
    endloop
  endfacet
  facet normal 0.321039 -0.947066 0
    outer loop
      vertex -86.2346 143.452 152
      vertex -86.4824 143.368 146
      vertex -86.2346 143.452 146
    endloop
  endfacet
  facet normal 0 0 -1
    outer loop
      vertex -95.4142 143.886 146
      vertex -86.4824 173.432 146
      vertex -95.2175 143.713 146
    endloop
  endfacet
  facet normal 0 0 1
    outer loop
      vertex -85.7825 173.087 152
      vertex -95.732 172.5 152
      vertex -85.5858 172.914 152
    endloop
  endfacet
  facet normal 0 -0 -1
    outer loop
      vertex -95.732 172.5 146
      vertex -86.4824 173.432 146
      vertex -95.8478 172.265 146
    endloop
  endfacet
  facet normal 0.195013 0.980801 0
    outer loop
      vertex -86.4824 173.432 152
      vertex -86.4824 173.432 146
      vertex -86.7389 173.483 152
    endloop
  endfacet
  facet normal 0.321039 0.947066 0
    outer loop
      vertex -86.2346 173.348 152
      vertex -86.4824 173.432 146
      vertex -86.4824 173.432 152
    endloop
  endfacet
  facet normal 0.660421 0.750895 0
    outer loop
      vertex -85.5858 172.914 152
      vertex -85.7825 173.087 146
      vertex -85.7825 173.087 152
    endloop
  endfacet
  facet normal 0.946632 -0.322315 0
    outer loop
      vertex -85.1522 144.535 152
      vertex -85.1522 144.535 146
      vertex -85.0681 144.782 152
    endloop
  endfacet
  facet normal 0 0 -1
    outer loop
      vertex -95 143.568 146
      vertex -86.4824 173.432 146
      vertex -94.7654 143.452 146
    endloop
  endfacet
  facet normal 0 0 1
    outer loop
      vertex -86.4824 173.432 152
      vertex -95.732 172.5 152
      vertex -86.2346 173.348 152
    endloop
  endfacet
  facet normal -0.750676 0.660671 0
    outer loop
      vertex -95.4142 172.914 146
      vertex -95.5867 172.718 152
      vertex -95.4142 172.914 152
    endloop
  endfacet
  facet normal 0.832109 0.554612 0
    outer loop
      vertex -85.4133 172.718 146
      vertex -85.268 172.5 152
      vertex -85.268 172.5 146
    endloop
  endfacet
  facet normal 0 0 1
    outer loop
      vertex -86 143.568 152
      vertex -95.732 172.5 152
      vertex -86.2346 143.452 152
    endloop
  endfacet
  facet normal 0 0 -1
    outer loop
      vertex -96 145.3 146
      vertex -86.4824 173.432 146
      vertex -95.9829 145.039 146
    endloop
  endfacet
  facet normal -0.660421 0.750895 0
    outer loop
      vertex -95.2175 173.087 146
      vertex -95.4142 172.914 152
      vertex -95.2175 173.087 152
    endloop
  endfacet
  facet normal -0 0 1
    outer loop
      vertex -94.2611 173.483 152
      vertex -95.732 172.5 152
      vertex -94 173.5 152
    endloop
  endfacet
  facet normal 0.897008 0.442015 -0
    outer loop
      vertex -85.268 172.5 146
      vertex -85.268 172.5 152
      vertex -85.1522 172.265 146
    endloop
  endfacet
  facet normal -0.5547 -0.83205 0
    outer loop
      vertex -95.2175 143.713 146
      vertex -95 143.568 152
      vertex -95.2175 143.713 152
    endloop
  endfacet
  facet normal 0 0 -1
    outer loop
      vertex -85.1522 144.535 146
      vertex -86.4824 173.432 146
      vertex -85.0681 144.782 146
    endloop
  endfacet
  facet normal -0.321039 0.947066 0
    outer loop
      vertex -94.7654 173.348 146
      vertex -94.7654 173.348 152
      vertex -94.5176 173.432 146
    endloop
  endfacet
  facet normal 0 0 -1
    outer loop
      vertex -94.2611 143.317 146
      vertex -86.4824 173.432 146
      vertex -94 143.3 146
    endloop
  endfacet
  facet normal 0 0 1
    outer loop
      vertex -85.5858 172.914 152
      vertex -95.732 172.5 152
      vertex -85.4133 172.718 152
    endloop
  endfacet
  facet normal -0.443235 -0.896405 -0
    outer loop
      vertex -94.7654 143.452 152
      vertex -95 143.568 152
      vertex -94.7654 143.452 146
    endloop
  endfacet
  facet normal 0 0 1
    outer loop
      vertex -86.4824 143.368 152
      vertex -95.732 172.5 152
      vertex -86.7389 143.317 152
    endloop
  endfacet
  facet normal 0 0 -1
    outer loop
      vertex -86.2346 143.452 146
      vertex -86.4824 173.432 146
      vertex -86 143.568 146
    endloop
  endfacet
  facet normal 0 0 -1
    outer loop
      vertex -85.7825 143.713 146
      vertex -86.4824 173.432 146
      vertex -85.5858 143.886 146
    endloop
  endfacet
  facet normal 0 0 1
    outer loop
      vertex -86.7389 173.483 152
      vertex -95.732 172.5 152
      vertex -86.4824 173.432 152
    endloop
  endfacet
  facet normal 0 0 1
    outer loop
      vertex -85.0681 144.782 152
      vertex -95.732 172.5 152
      vertex -85.1522 144.535 152
    endloop
  endfacet
  facet normal 0 0 -1
    outer loop
      vertex -95.5867 144.082 146
      vertex -86.4824 173.432 146
      vertex -95.4142 143.886 146
    endloop
  endfacet
  facet normal 0 0 -1
    outer loop
      vertex -95.9829 145.039 146
      vertex -86.4824 173.432 146
      vertex -95.9319 144.782 146
    endloop
  endfacet
  facet normal 0 0 1
    outer loop
      vertex -95.5867 144.082 152
      vertex -95.732 172.5 152
      vertex -95.732 144.3 152
    endloop
  endfacet
  facet normal 0.5547 -0.83205 0
    outer loop
      vertex -86 143.568 146
      vertex -85.7825 143.713 152
      vertex -86 143.568 152
    endloop
  endfacet
  facet normal 0 0 1
    outer loop
      vertex -87 143.3 152
      vertex -95.732 172.5 152
      vertex -94 143.3 152
    endloop
  endfacet
  facet normal 0 0 -1
    outer loop
      vertex -85.0171 171.761 146
      vertex -86.4824 173.432 146
      vertex -85.0681 172.018 146
    endloop
  endfacet
  facet normal 0 0 1
    outer loop
      vertex -85.7825 143.713 152
      vertex -95.732 172.5 152
      vertex -86 143.568 152
    endloop
  endfacet
  facet normal -0.897008 0.442015 0
    outer loop
      vertex -95.8478 172.265 146
      vertex -95.732 172.5 152
      vertex -95.732 172.5 146
    endloop
  endfacet
  facet normal 0 0 -1
    outer loop
      vertex -86.4824 143.368 146
      vertex -86.4824 173.432 146
      vertex -86.2346 143.452 146
    endloop
  endfacet
  facet normal 0 0 -1
    outer loop
      vertex -86 143.568 146
      vertex -86.4824 173.432 146
      vertex -85.7825 143.713 146
    endloop
  endfacet
  facet normal 0 -0 1
    outer loop
      vertex -95.8478 144.535 152
      vertex -95.732 172.5 152
      vertex -95.9319 144.782 152
    endloop
  endfacet
  facet normal 0 0 1
    outer loop
      vertex -85.0681 172.018 152
      vertex -95.732 172.5 152
      vertex -85.0171 171.761 152
    endloop
  endfacet
  facet normal 0 0 -1
    outer loop
      vertex -85.1522 172.265 146
      vertex -86.4824 173.432 146
      vertex -85.268 172.5 146
    endloop
  endfacet
  facet normal -0.980873 0.194648 0
    outer loop
      vertex -95.9829 171.761 152
      vertex -95.9319 172.018 146
      vertex -95.9829 171.761 146
    endloop
  endfacet
  facet normal -0.443235 0.896405 0
    outer loop
      vertex -95 173.232 146
      vertex -94.7654 173.348 152
      vertex -94.7654 173.348 146
    endloop
  endfacet
  facet normal 0 0 1
    outer loop
      vertex -95.4142 143.886 152
      vertex -95.732 172.5 152
      vertex -95.5867 144.082 152
    endloop
  endfacet
  facet normal 0 -0 -1
    outer loop
      vertex -94.7654 173.348 146
      vertex -86.4824 173.432 146
      vertex -95 173.232 146
    endloop
  endfacet
  facet normal 0 -0 -1
    outer loop
      vertex -94.2611 173.483 146
      vertex -86.4824 173.432 146
      vertex -94.5176 173.432 146
    endloop
  endfacet
  facet normal 0 0 1
    outer loop
      vertex -85.5858 143.886 152
      vertex -95.732 172.5 152
      vertex -85.7825 143.713 152
    endloop
  endfacet
  facet normal 0 0 1
    outer loop
      vertex -85 145.3 152
      vertex -95.732 172.5 152
      vertex -85.0171 145.039 152
    endloop
  endfacet
  facet normal 0 -0 -1
    outer loop
      vertex -95 173.232 146
      vertex -86.4824 173.432 146
      vertex -95.2175 173.087 146
    endloop
  endfacet
  facet normal 0 -0 -1
    outer loop
      vertex -95.4142 172.914 146
      vertex -86.4824 173.432 146
      vertex -95.5867 172.718 146
    endloop
  endfacet
  facet normal 0 0 -1
    outer loop
      vertex -85.4133 172.718 146
      vertex -86.4824 173.432 146
      vertex -85.5858 172.914 146
    endloop
  endfacet
  facet normal 0 0 -1
    outer loop
      vertex -85.5858 172.914 146
      vertex -86.4824 173.432 146
      vertex -85.7825 173.087 146
    endloop
  endfacet
  facet normal 0 0 -1
    outer loop
      vertex -85 171.5 146
      vertex -86.4824 173.432 146
      vertex -85.0171 171.761 146
    endloop
  endfacet
  facet normal 0 0 -1
    outer loop
      vertex -85 145.3 146
      vertex -86.4824 173.432 146
      vertex -85 171.5 146
    endloop
  endfacet
  facet normal 0 0 -1
    outer loop
      vertex -86 173.232 146
      vertex -86.4824 173.432 146
      vertex -86.2346 173.348 146
    endloop
  endfacet
  facet normal 0.321039 0.947066 -0
    outer loop
      vertex -86.2346 173.348 146
      vertex -86.4824 173.432 146
      vertex -86.2346 173.348 152
    endloop
  endfacet
  facet normal 0 -0 1
    outer loop
      vertex -95.9319 144.782 152
      vertex -95.732 172.5 152
      vertex -95.9829 145.039 152
    endloop
  endfacet
  facet normal 0 0 1
    outer loop
      vertex -95.2175 143.713 152
      vertex -95.732 172.5 152
      vertex -95.4142 143.886 152
    endloop
  endfacet
  facet normal -0.832109 0.554612 0
    outer loop
      vertex -95.5867 172.718 146
      vertex -95.732 172.5 152
      vertex -95.5867 172.718 152
    endloop
  endfacet
  facet normal 0 0 1
    outer loop
      vertex -95.9319 172.018 152
      vertex -95.732 172.5 152
      vertex -95.8478 172.265 152
    endloop
  endfacet
  facet normal 0 0 1
    outer loop
      vertex -85.4133 144.082 152
      vertex -95.732 172.5 152
      vertex -85.5858 143.886 152
    endloop
  endfacet
  facet normal 0 0 1
    outer loop
      vertex -86.2346 143.452 152
      vertex -95.732 172.5 152
      vertex -86.4824 143.368 152
    endloop
  endfacet
  facet normal 0 0 1
    outer loop
      vertex -94.7654 143.452 152
      vertex -95.732 172.5 152
      vertex -95 143.568 152
    endloop
  endfacet
  facet normal 0 0 1
    outer loop
      vertex -94.2611 143.317 152
      vertex -95.732 172.5 152
      vertex -94.5176 143.368 152
    endloop
  endfacet
  facet normal 0 0 -1
    outer loop
      vertex -85.0171 145.039 146
      vertex -86.4824 173.432 146
      vertex -85 145.3 146
    endloop
  endfacet
  facet normal 0 0 -1
    outer loop
      vertex -85.0681 144.782 146
      vertex -86.4824 173.432 146
      vertex -85.0171 145.039 146
    endloop
  endfacet
  facet normal 0 0 1
    outer loop
      vertex -96 171.5 152
      vertex -95.732 172.5 152
      vertex -95.9829 171.761 152
    endloop
  endfacet
  facet normal 0 0 1
    outer loop
      vertex -96 145.3 152
      vertex -95.732 172.5 152
      vertex -96 171.5 152
    endloop
  endfacet
endsolid OpenSCAD_Model
